<svg xmlns="http://www.w3.org/2000/svg" viewBox="0 0 4835 780">
<g transform="translate(1853,200) scale(0.45,-1)">
<path d="M106 586Q106 559 137.5 537.5Q169 516 216.5 494.5Q264 473 319.0 448.0Q374 423 421.5 389.5Q469 356 500.5 310.5Q532 265 532 203Q532 154 511.5 114.5Q491 75 454.0 47.5Q417 20 367.5 5.0Q318 -10 259 -10Q208 -10 164.0 1.0Q120 12 88.0 31.5Q56 51 38.0 77.0Q20 103 20 133Q20 172 47.5 192.5Q75 213 116 206Q136 128 193.5 84.5Q251 41 335 41Q388 41 416.5 57.5Q445 74 445 102Q445 132 413.5 157.0Q382 182 335.0 206.0Q288 230 232.5 256.5Q177 283 130.0 316.5Q83 350 51.5 393.0Q20 436 20 493Q20 535 38.5 571.5Q57 608 93.0 634.0Q129 660 181.5 675.0Q234 690 302 690Q348 690 387.0 683.0Q426 676 454.0 663.5Q482 651 498.0 633.0Q514 615 514 593Q514 562 488.0 545.0Q462 528 420 535Q404 559 380.0 578.0Q356 597 327.5 610.5Q299 624 267.5 631.0Q236 638 204 638Q158 638 132.0 623.5Q106 609 106 586Z" transform="translate(0,0)" fill="#888"/>
<path d="M30 680H230V355H350V680H550V0H350V325H230V0H30Z" transform="translate(592,0)" fill="#888"/>
<path d="M20 340Q20 417 42.5 481.0Q65 545 105.5 591.5Q146 638 201.5 664.0Q257 690 323 690Q388 690 443.5 664.0Q499 638 539.0 591.5Q579 545 601.5 481.0Q624 417 624 340Q624 264 601.5 199.5Q579 135 539.0 88.5Q499 42 443.5 16.0Q388 -10 323 -10Q257 -10 201.5 16.0Q146 42 105.5 88.5Q65 135 42.5 199.5Q20 264 20 340ZM225 449Q225 360 235.0 282.0Q245 204 263.0 146.5Q281 89 305.0 55.5Q329 22 356 22Q388 22 403.5 71.5Q419 121 419 228Q419 318 409.0 396.5Q399 475 381.5 533.0Q364 591 340.0 624.5Q316 658 289 658Q257 658 241.0 607.5Q225 557 225 449Z" transform="translate(1212,0)" fill="#888"/>
<path d="M250 680Q425 680 507.5 625.0Q590 570 590 455Q590 401 572.5 356.5Q555 312 523.0 280.5Q491 249 445.0 231.5Q399 214 343 214Q281 214 230 234V0H30V680ZM230 258Q305 260 342.5 311.0Q380 362 380 460Q380 553 346.5 601.5Q313 650 249 650H230Z" transform="translate(1896,0)" fill="#888"/>
</g><g transform="translate(30,1030) scale(0.88,-1)">
<path d="M215 311 10 680H239L411 371L412 373Q435 415 434.0 453.0Q433 491 423.0 525.5Q413 560 401.0 590.5Q389 621 389 646Q389 680 415 680H616L415 317V0H215Z" transform="translate(0,0)" fill="#111"/>
<path d="M20 340Q20 417 42.5 481.0Q65 545 105.5 591.5Q146 638 201.5 664.0Q257 690 323 690Q388 690 443.5 664.0Q499 638 539.0 591.5Q579 545 601.5 481.0Q624 417 624 340Q624 264 601.5 199.5Q579 135 539.0 88.5Q499 42 443.5 16.0Q388 -10 323 -10Q257 -10 201.5 16.0Q146 42 105.5 88.5Q65 135 42.5 199.5Q20 264 20 340ZM225 449Q225 360 235.0 282.0Q245 204 263.0 146.5Q281 89 305.0 55.5Q329 22 356 22Q388 22 403.5 71.5Q419 121 419 228Q419 318 409.0 396.5Q399 475 381.5 533.0Q364 591 340.0 624.5Q316 658 289 658Q257 658 241.0 607.5Q225 557 225 449Z" transform="translate(621,0)" fill="#111"/>
<path d="M249 -10Q144 -10 87.0 48.5Q30 107 30 214V680H193Q240 680 240 632Q240 607 228.5 575.0Q217 543 199.0 505.5Q181 468 161.0 427.5Q141 387 123.0 344.5Q105 302 93.5 259.5Q82 217 82 177Q82 103 124.0 61.5Q166 20 242 20Q340 20 340 87V680H540V0H423Q372 0 329.0 -5.0Q286 -10 249 -10Z" transform="translate(1260,0)" fill="#111"/>
<path d="M175 0Q203 98 222.5 182.0Q242 266 254.5 344.0Q267 422 273.0 496.5Q279 571 280 650H270Q183 650 131.0 576.5Q79 503 57 349L47 350L30 680H560L543 350L533 349Q511 503 459.0 576.5Q407 650 320 650H310Q311 571 317.0 496.5Q323 422 335.5 344.0Q348 266 367.5 182.0Q387 98 415 0Z" transform="translate(1825,0)" fill="#111"/>
<path d="M30 680H230V383L258 355H322L350 383V680H550V0H350V297L322 325H258L230 297V0H30Z" transform="translate(2410,0)" fill="#111"/>
<path d="M175 0Q203 98 222.5 182.0Q242 266 254.5 344.0Q267 422 273.0 496.5Q279 571 280 650H270Q183 650 131.0 576.5Q79 503 57 349L47 350L30 680H560L543 350L533 349Q511 503 459.0 576.5Q407 650 320 650H310Q311 571 317.0 496.5Q323 422 335.5 344.0Q348 266 367.5 182.0Q387 98 415 0Z" transform="translate(2985,0)" fill="#111"/>
<path d="M20 340Q20 417 42.5 481.0Q65 545 105.5 591.5Q146 638 201.5 664.0Q257 690 323 690Q388 690 443.5 664.0Q499 638 539.0 591.5Q579 545 601.5 481.0Q624 417 624 340Q624 264 601.5 199.5Q579 135 539.0 88.5Q499 42 443.5 16.0Q388 -10 323 -10Q257 -10 201.5 16.0Q146 42 105.5 88.5Q65 135 42.5 199.5Q20 264 20 340ZM225 449Q225 360 235.0 282.0Q245 204 263.0 146.5Q281 89 305.0 55.5Q329 22 356 22Q388 22 403.5 71.5Q419 121 419 228Q419 318 409.0 396.5Q399 475 381.5 533.0Q364 591 340.0 624.5Q316 658 289 658Q257 658 241.0 607.5Q225 557 225 449Z" transform="translate(3570,0)" fill="#111"/>
<path d="M195 680Q558 680 558 521Q558 489 543.5 460.5Q529 432 503.0 411.0Q477 390 441.0 378.0Q405 366 362 366Q337 366 312.5 370.0Q288 374 264 382Q265 382 267 380L273 377Q274 376 274.5 376.0Q275 376 276 375Q312 355 348.5 340.0Q385 325 418.0 310.5Q451 296 480.5 281.5Q510 267 531.0 246.5Q552 226 564.5 199.0Q577 172 577 134Q577 97 564.5 61.0Q552 25 527 0H327Q367 49 367 122Q367 181 343.0 228.0Q319 275 282.0 315.0Q245 355 201.5 392.0Q158 429 119 468Q88 497 62 531Q67 497 81.0 469.5Q95 442 114.0 414.0Q133 386 153.5 355.0Q174 324 191.0 283.0Q208 242 219.0 189.0Q230 136 230 63V0H30V680ZM60 586Q83 548 110.5 516.5Q138 485 166.5 462.0Q195 439 224.0 426.5Q253 414 279 414Q316 414 337.0 440.5Q358 467 358 513Q358 579 315.0 614.5Q272 650 194 650H60Z" transform="translate(4209,0)" fill="#111"/>
<path d="M215 311 10 680H239L411 371L412 373Q435 415 434.0 453.0Q433 491 423.0 525.5Q413 560 401.0 590.5Q389 621 389 646Q389 680 415 680H616L415 317V0H215Z" transform="translate(4801,0)" fill="#111"/>
</g></svg>